# xmcd CD database file
#
# Track frame offsets:
#	150
#	4608
#	17799
#	30024
#	40233
#	54880
#	71705
#	91073
#	109516
#	124278
#	141632
#	157365
#	174655
#
# Disc length: 2465 seconds
#
# Revision: 0
# Processed by: cddbd v1.5.1PL2 Copyright (c) Steve Scherf et al.
# Submitted via: CDex 1.51
#
DISCID=a7099f0d
DTITLE=Loskot - Sun
DYEAR=1900
DGENRE=Jazz
TTITLE0=Logothetis dance
TTITLE1=Tesla
TTITLE2=In Z-dur
TTITLE3=Born to Love
TTITLE4=Born to Noise
TTITLE5=Max Born/Funeral
TTITLE6=Gehinnom
TTITLE7=Transmitting/Receiving
TTITLE8=Mariola
TTITLE9=Barraque Grounge
TTITLE10=Ylem God
TTITLE11=Hypholomas
TTITLE12=Oak Zombie
EXTD=
EXTT0=
EXTT1=
EXTT2=
EXTT3=
EXTT4=
EXTT5=
EXTT6=
EXTT7=
EXTT8=
EXTT9=
EXTT10=
EXTT11=
EXTT12=
PLAYORDER=
